<?xml version="1.0" encoding="UTF-8" standalone="no"?>
<svg
   version="1.1"
   viewBox="0 0 803.4002227783203 368.6844110282669"
   width="803.4002227783203"
   height="368.6844110282669"
   id="svg10"
   sodipodi:docname="doc.svg"
   inkscape:version="1.3.2 (091e20e, 2023-11-25, custom)"
   xmlns:inkscape="http://www.inkscape.org/namespaces/inkscape"
   xmlns:sodipodi="http://sodipodi.sourceforge.net/DTD/sodipodi-0.dtd"
   xmlns="http://www.w3.org/2000/svg"
   xmlns:svg="http://www.w3.org/2000/svg">
  <sodipodi:namedview
     id="namedview10"
     pagecolor="#ffffff"
     bordercolor="#000000"
     borderopacity="0.25"
     inkscape:showpageshadow="2"
     inkscape:pageopacity="0.0"
     inkscape:pagecheckerboard="0"
     inkscape:deskcolor="#d1d1d1"
     inkscape:zoom="1.2932533"
     inkscape:cx="401.31348"
     inkscape:cy="184.41862"
     inkscape:window-width="1920"
     inkscape:window-height="991"
     inkscape:window-x="-9"
     inkscape:window-y="-9"
     inkscape:window-maximized="1"
     inkscape:current-layer="g3" />
  <!-- svg-source:excalidraw -->
  <defs
     id="defs1">
    <style
       class="style-fonts"
       id="style1">
      @font-face {
        font-family: &quot;Virgil&quot;;
        src: url(&quot;https://unpkg.com/revedraw@1.0.0-alpha.10/dist/excalidraw-assets/Virgil.woff2&quot;);
      }
      @font-face {
        font-family: &quot;Cascadia&quot;;
        src: url(&quot;https://unpkg.com/revedraw@1.0.0-alpha.10/dist/excalidraw-assets/Cascadia.woff2&quot;);
      }
    </style>
  </defs>
  <g
     stroke-linecap="round"
     transform="translate(10 10) rotate(0 94.19999694824219 90)"
     id="g1">
    <path
       d="M118.75 22.75 M118.75 22.75 C129 30.72, 139.28 41.56, 164.65 68.25 M164.65 68.25 C186.79 89.92, 188.48 90.21, 164.65 113.75 M164.65 113.75 C145.74 129.13, 131.91 146.86, 118.75 157.25 M118.75 157.25 C94.41 179.65, 95.26 180.92, 71.25 157.25 M71.25 157.25 C60.5 146.91, 47.88 139.04, 23.75 113.75 M23.75 113.75 C-1.84 91.93, 1.55 92.49, 23.75 68.25 M23.75 68.25 C43.42 52.56, 58.98 35.77, 71.25 22.75 M71.25 22.75 C94.39 -1.37, 93.78 0.07, 118.75 22.75"
       stroke="#1e1e1e"
       stroke-width="2.5"
       fill="none"
       stroke-dasharray="8 10"
       id="path1" />
  </g>
  <g
     stroke-linecap="round"
     transform="translate(16.199996948242188 218.39999389648438) rotate(0 66.60000610351562 68)"
     id="g2">
    <path
       d="M32 0 M32 0 C47.49 1.21, 64.67 1.73, 101.2 0 M32 0 C58.49 -1.01, 82.63 -1.18, 101.2 0 M101.2 0 C122.62 1.87, 133.91 11.89, 133.2 32 M101.2 0 C120.28 -0.01, 134.37 12.26, 133.2 32 M133.2 32 C133.48 47.9, 132.83 65.59, 133.2 104 M133.2 32 C131.89 51.56, 132.58 72.74, 133.2 104 M133.2 104 C132.81 125.68, 123.24 135.45, 101.2 136 M133.2 104 C135.35 123.27, 122.95 134.5, 101.2 136 M101.2 136 C86.23 137.21, 68.06 134.35, 32 136 M101.2 136 C74.29 137.27, 45.69 136.29, 32 136 M32 136 C10.09 135.4, -0.09 126.16, 0 104 M32 136 C10.66 136.41, -1.17 125.65, 0 104 M0 104 C-0.89 81.85, -0.59 57.6, 0 32 M0 104 C-0.36 78.95, -0.82 53.16, 0 32 M0 32 C0.75 12.16, 11.18 -1.69, 32 0 M0 32 C0.2 8.76, 11.53 -0.75, 32 0"
       stroke="#1971c2"
       stroke-width="2"
       fill="none"
       id="path2" />
  </g>
  <g
     transform="translate(208.76619573265498 77.43427571619418) rotate(0 225.19744873046875 42.62334579076522)"
     id="g3">
    <path
       d="m 24.720725,18.324705 q -0.136395,-1.159355 0.477381,-2.182314 0.681973,-1.091157 1.704932,-1.227552 2.386906,-0.477381 4.160036,1.159355 0.272789,0.136394 1.432143,1.363946 2.932484,1.841327 7.297112,2.182313 2.591497,0 4.773811,0.0682 2.250511,0.0682 4.773811,-0.27279 2.591498,-0.340986 4.705614,-1.091156 2.864287,-2.250511 2.182314,-3.887247 Q 55.818695,13.073512 53.43179,11.36858 51.044884,9.663647 50.6357,9.2544632 43.133997,6.526571 34.677531,2.3665355 32.42702,1.2753787 31.40406,0.45701101 30.381101,-0.36135664 28.607971,-2.4072757 q -0.818368,-1.1593542 -0.272789,-4.5692194 0.409184,-1.1593542 2.864287,-2.3187083 0.0682,0 1.432143,-0.4091839 1.363946,-0.4091837 1.568538,-0.4091837 0.818368,-0.613776 1.841327,-1.159354 1.091157,-0.613776 1.909525,-1.02296 0.886565,-0.409184 2.250511,-0.954762 1.432143,-0.613776 2.114116,-0.886565 0.75017,-0.272789 2.386906,-0.818368 1.704932,-0.613775 2.250511,-0.818367 0.681973,-0.204592 2.864286,-1.091157 2.182314,-0.954762 3.955444,-1.568538 1.841327,-0.681973 2.727892,-0.818368 l 3.955444,-0.409184 2.659695,1.295749 q 0.613775,0.477381 0.75017,1.091157 0.204592,0.545578 0.136395,1.500341 0,0.954762 0,1.295748 -1.77313,2.250512 -3.478063,1.77313 -0.136394,0 -0.886565,-0.409183 -0.75017,-0.477382 -0.818367,-0.477382 -0.409184,-0.0682 -1.02296,0.0682 -0.613776,0.136394 -1.432143,0.477381 -0.750171,0.272789 -1.02296,0.340986 -1.841327,1.02296 -6.137757,2.8642871 -4.228233,1.7731299 -5.046601,2.1823138 -5.319389,1.9777218 -6.478744,2.7278921 v 0.4091838 q 0.886565,1.2275515 2.318709,2.1823138 1.432143,0.9547622 4.023641,2.04591907 2.591497,1.09115686 3.137076,1.36394603 9.888609,3.6826544 14.253236,9.0702413 1.704933,3.682655 1.295749,6.887928 -1.091157,2.591497 -3.341668,4.705614 -2.250511,2.045919 -4.910206,3.000681 -3.750852,1.500341 -11.252555,1.363946 -7.910887,0.204592 -13.298474,-2.182313 -1.841327,-0.545579 -2.591498,-1.295749 -2.591497,-1.909525 -2.591497,-4.29643 z m 41.668539,-30.006814 q 0.409184,-1.02296 1.432143,-1.636735 1.091157,-0.681973 2.250511,-0.545579 0.409184,-0.0682 0.750171,0 0.340986,0.0682 0.681973,0.272789 0.409184,0.204592 0.613775,0.340987 0.204592,0.136395 0.545579,0.613776 0.409184,0.477381 0.545578,0.613775 0.136395,0.0682 0.545579,0.681973 l 0.409184,0.545579 q 0.272789,0.681973 2.591497,3.0006813 0.477381,0.681973 0.477381,1.6367352 0.0682,0.886565 -0.477381,1.4321434 h -1.500341 q -1.159354,0.2045919 -2.386905,-0.1363946 -1.159354,-0.3409865 -3.137076,-1.3639461 -1.909525,-1.0229595 -2.045919,-1.0911568 -1.159354,-0.6819731 -1.568538,-1.9095245 -0.340987,-1.2957489 0.272789,-2.4551029 z m 4.364627,34.576033 q -0.136394,-0.818368 -0.409183,-3.54626 -0.27279,-2.796089 -0.545579,-5.796771 -0.272789,-3.068878 -0.340986,-3.6144568 -0.136395,-1.8413272 0,-3.8872463 1.022959,-1.7731299 3.409865,-1.2957488 0.886565,0.4091839 1.77313,2.5914976 0,1.4321434 0.204592,3.0006813 0.272789,1.568538 0.477381,2.659695 0.272789,1.091157 0.75017,2.864287 0.477381,1.77313 0.681973,2.727892 0,0.545578 -0.136395,1.77313 -0.0682,1.159354 -0.204591,2.250511 -0.0682,1.091157 -0.0682,1.159354 -0.0682,0.204592 -0.204592,0.75017 -0.0682,0.545579 -0.204592,0.886565 -0.0682,0.340987 -0.340986,0.750171 -0.204592,0.340986 -0.545579,0.545578 -1.841327,0.340986 -3.000681,-0.818368 -1.159354,-2.045919 -1.295749,-3.000681 z M 88.075997,6.5947683 88.485181,8.7770821 q -0.204592,0.8865649 0.886564,4.2964299 2.727893,-2.864287 3.819049,-5.1829949 1.500341,-1.7049326 1.295749,-3.4780625 3.000682,-1.7049326 5.182995,-1.2957487 1.227552,0.3409865 2.591502,3.0688786 v 6.4787435 l 0.47738,0.409184 q 1.29575,-1.363946 3.34166,-4.0236407 2.11412,-2.6596949 2.6597,-3.3416679 2.04592,-2.7960895 3.88725,-3.8872463 2.86428,0.3409865 4.29643,2.1823137 1.97772,3.3416679 2.59149,9.4794252 -0.0682,1.227551 0.1364,2.591498 0.20459,1.363946 0.61377,3.000681 0.40919,1.636735 0.54558,2.591497 0.68198,1.909525 0.47738,3.478063 -0.0682,0.886565 -0.88656,1.159354 -0.81837,0.272789 -1.70493,0.0682 -1.50034,-0.340986 -2.5915,-2.5233 -0.47738,-1.022959 -0.88657,-1.977722 -0.34098,-1.022959 -0.68197,-2.455103 -0.27279,-1.50034 -0.40918,-1.977721 -0.0682,-0.477381 -0.34099,-2.523301 -0.27279,-2.114116 -0.27279,-2.250511 -0.47738,-1.363946 -1.09116,-1.363946 -0.27279,0.136395 -1.02296,0.818368 -0.75017,0.681973 -1.50034,1.432143 -0.68197,0.681973 -1.50034,1.568538 -0.81836,0.818368 -0.95476,0.954763 l -0.68197,0.954762 -2.5233,3.27347 -0.68198,0.954763 q -0.27278,0.272789 -1.02295,1.295748 -0.68198,0.954763 -1.22756,1.432144 -0.47738,0.477381 -1.15935,0.75017 -1.159355,0.204592 -2.182314,-0.204592 -1.02296,-0.477381 -1.295749,-1.568538 -0.409184,-0.545578 -0.409184,-1.295749 v -7.228914 h -0.136394 q -0.27279,-0.136394 -0.340987,-0.0682 -4.705614,6.615138 -7.297111,11.184358 -0.613776,0.818367 -0.886565,0.818367 -2.932484,0.340987 -3.409866,-0.818367 -0.204592,-0.340987 -0.545578,-1.363946 -0.340987,-1.091157 -0.340987,-1.227552 V 6.3901764 q 0.27279,-1.8413272 1.77313,-1.8413272 0.818368,0 1.704933,0.6137758 0.886565,0.6137757 1.295749,1.4321433 z M 126.94842,8.095109 q 1.09116,-3.3416679 3.13708,-5.3193897 2.11411,-1.97772177 5.52398,-3.34166785 1.43214,-0.40918382 2.31871,-0.40918382 0.47738,0 2.25051,0.27278922 8.04728,2.11411645 11.38895,7.09251955 4.36462,4.2282326 3.47806,12.8892906 -1.02296,3.205273 -4.84201,5.387587 -3.75085,2.114116 -7.22891,1.909524 -3.13708,0.750171 -6.00137,-1.022959 -2.79609,-1.841327 -5.66037,-4.978403 h -0.27279 q 0,0.613775 -0.1364,5.251192 -0.0682,4.569219 -0.0682,6.81973 -0.54558,7.297112 3.47806,14.18504 0.68197,1.295748 0,3.068878 -1.36395,1.568538 -2.18231,1.704933 -0.54558,0.0682 -0.81837,0.0682 -0.27279,0.0682 -0.75017,-0.340986 -0.47738,-0.340987 -0.68198,-0.613776 -0.20459,-0.204592 -0.61377,-0.681973 -0.40919,-0.477381 -0.54558,-0.613776 -2.72789,-4.910206 -3.47806,-16.367353 0,-0.545578 -0.0682,-4.091838 0,-3.478063 0,-4.364627 0,-0.886565 0.0682,-3.682655 0.0682,-2.864287 0.27279,-4.364627 0.20459,-1.568538 0.54558,-3.887247 0.34098,-2.386905 0.88656,-4.569219 z m 9.54762,8.59286 q 0.27279,0.409184 1.63674,1.841328 1.36394,1.363946 1.77313,1.636735 1.43214,0.818367 3.34167,0.818367 4.09183,0 5.31939,-3.000681 0.88656,-2.864287 -0.0682,-5.114798 -0.88657,-2.318708 -3.40987,-4.773811 -0.88656,-0.8183676 -1.36394,-1.1593541 -0.47738,-0.3409866 -1.36395,-0.6137758 -0.81837,-0.3409865 -1.56854,0.068197 -2.86428,1.3639461 -4.77381,6.4105466 0,0.340987 -0.0682,1.227551 0,0.886565 0.0682,1.500341 0.1364,0.613776 0.47738,1.159354 z m 25.84678,-2.455103 q 0.0682,-4.091838 0.47738,-10.9797655 0.40918,-6.956125 0.47738,-9.6840172 -0.0682,-3.3416679 0.27279,-12.4801063 0.34099,-9.138439 0.1364,-13.366672 0.54557,-1.77313 2.04591,-1.77313 1.90953,0 3.13708,2.182314 0,0.886565 0.0682,1.636735 l 0.27279,4.910206 q 0.0682,0.750171 0.0682,1.636735 -0.13639,6.410547 -0.88656,18.754259 -0.68197,12.343712 -0.81837,17.45851 0.0682,0.954762 0.20459,2.932484 0.1364,1.977722 0.2046,2.932484 0.13639,0.886565 0.34098,2.318708 0.27279,1.363946 0.68198,2.5233 0.47738,1.091157 1.15935,2.182314 0.0682,0.954762 -0.47738,1.704933 -0.88657,0.545578 -2.25051,0.545578 -1.56854,0 -2.45511,-0.545578 -1.15935,-1.227552 -1.77313,-3.068879 -0.61377,-1.841327 -0.75017,-2.864287 -0.13639,-1.022959 -0.13639,-3.750851 0,-2.79609 0,-3.205274 z m 19.77726,-7.3653084 q 4.9102,-6.27415198 10.77517,-8.1836765 3.75085,-0.4773811 3.95544,-0.4773811 4.22824,0.1363946 7.36531,2.59149753 3.13708,2.38690567 3.34167,6.54694117 0.0682,3.6144573 -2.93248,6.6151383 -2.93249,3.000682 -6.54695,3.273471 -1.36394,0.477381 -2.93248,0.477381 -3.54626,0 -7.84269,-2.591498 -1.29575,-1.295748 -1.70493,-1.295748 -0.27279,-0.136395 -0.47738,0 -2.25051,3.409865 -2.18232,5.182995 0.75017,4.432824 4.77381,7.501703 4.02364,3.137076 8.52467,2.864287 0.68197,0.272789 2.3869,0 1.70494,-0.204592 2.25051,-0.340987 0.61378,-0.136394 2.31871,-0.681973 1.77313,-0.477381 2.4551,-0.681973 2.38691,-0.954762 6.34235,-1.227551 h 0.47739 q 0.47738,-0.136395 0.88656,0.204592 0.40918,0.340986 0.47738,1.022959 v 2.5233 q -2.4551,2.79609 -6.06956,3.000682 -0.75017,0.204592 -2.72789,0.75017 -1.90953,0.545579 -2.93248,0.750171 -0.95477,0.272789 -2.5915,0.477381 -1.56854,0.272789 -2.86429,0.204592 -6.00136,0.272789 -11.52534,-3.068879 -5.0466,-2.591498 -7.7745,-9.002044 -1.02296,-4.023641 0.34099,-7.84269 1.36395,-3.819049 4.43283,-8.5928604 z m 5.31938,3.2734704 q 1.43215,0 2.45511,0.204592 0.61377,0.340987 1.15935,0.545578 0.61378,0.136395 1.43215,0.27279 0.88656,0.0682 1.15935,0.0682 0.27279,0 1.43214,0 1.22755,0 1.29575,0 3.54626,-1.091157 4.70562,-3.0688787 0.20459,-0.7501703 0,-1.2957487 -0.1364,-0.6137758 -0.75017,-1.0229596 -0.61378,-0.4091838 -1.15936,-0.6137757 -0.54558,-0.2045919 -1.50034,-0.4773812 -0.88656,-0.3409865 -1.29575,-0.4773811 -1.63673,0 -3.34167,0.9547623 -1.70493,0.8865649 -2.72789,1.7731299 -1.02296,0.8865649 -2.5915,2.4551029 0,0.068197 -0.13639,0.3409865 -0.1364,0.2045924 -0.1364,0.3409864 z m 60.62746,12.275515 q 0,-0.409184 0.2046,-2.386906 0.20459,-2.045919 0.20459,-2.386905 l 0.13639,-1.363947 0.61378,-4.637416 q 0,-0.272789 0,-0.545579 0.0682,-0.340986 0.0682,-0.545578 0.0682,-0.204592 0.0682,-0.272789 V 8.981674 q 0,-0.4091838 0.2046,-2.0459191 0.20459,-1.6367353 0.20459,-1.7731299 0.47738,-1.4321434 0.47738,-1.7731299 v -6.4787439 q -0.27279,-0.2727892 -0.81837,-1.4321434 -0.47738,-1.2275514 -0.47738,-1.568538 -0.34099,-2.250511 0,-4.7738108 0.20459,-0.477382 0.75017,-0.818368 0.61378,-0.340987 1.56854,-0.545578 0.95476,-0.27279 1.09115,-0.340987 2.5233,0.545578 3.47807,0.409184 1.43214,0 3.00068,-0.340987 1.63673,-0.340986 2.5233,-0.613775 0.95476,-0.340987 3.00068,-1.02296 2.04592,-0.75017 2.72789,-1.02296 0.88657,-0.204591 2.86429,-0.681973 2.04592,-0.545578 3.40986,-0.75017 1.43215,-0.272789 3.20528,-0.272789 0.75017,-0.0682 3.20527,0.340986 l 2.38691,0.477381 0.68197,0.477382 q 0.68197,0.545578 1.02296,0.886565 0.34099,0.272789 0.75017,0.818367 0.47738,0.477381 0.54558,0.886565 v 4.2964303 q -0.27279,0.5455784 -1.29575,0.8183676 -0.95476,0.2727893 -1.70493,0.068197 -0.27279,-0.1363947 -1.50034,-1.4321434 -1.15936,-1.2957489 -1.97773,-1.1593539 -7.63809,-0.340987 -12.4801,1.2957485 -0.75017,0.3409865 -3.06888,1.1593541 -2.31871,0.7501704 -3.81905,1.5003407 -1.50034,0.6819731 -2.5915,1.6367353 l -0.47738,0.4091838 q 0,0.4773812 -0.20459,3.0688787 -0.20459,2.5914976 -0.20459,3.0006814 v 0.4773811 q -0.0682,0.2045919 0.13639,0.886565 0.27279,0.681973 0.27279,0.8183676 1.56854,-0.4773811 4.36463,-0.4773811 h 3.00068 q 1.15935,-0.2727892 4.36463,-1.2275515 3.27347,-1.0229596 5.59218,-1.56853798 2.3869,-0.54557843 4.29643,-0.61377574 0.68197,0 2.18231,0 1.50034,-0.0681973 2.4551,-0.0681973 1.02296,-0.0681973 2.25051,0.0681973 1.29575,0.13639461 2.18232,0.40918383 3.06888,2.04591909 2.5915,3.68265439 0.27278,1.568538 -1.77313,2.3187083 -0.40919,0.2045919 -1.77313,-0.2727892 -1.36395,-0.5455784 -1.63674,-0.5455784 -4.22823,-0.5455784 -8.25187,0.2727892 -4.02364,0.8183677 -9.47943,2.7278922 -0.75017,0.2727892 -1.90952,0.681973 -1.09116,0.3409865 -1.63674,0.5455784 -0.54558,0.2045924 -1.36394,0.5455784 -0.81837,0.340987 -1.56854,0.818368 l -0.27279,0.136394 -0.75017,0.613776 -0.27279,0.136395 q -0.61378,0.136394 -1.90953,-0.136395 -1.22755,-0.340986 -1.50034,-0.340986 -0.34098,0.136394 -0.54558,0.613775 -0.13639,0.477381 -0.20459,1.159354 -0.0682,0.613776 -0.13639,0.818368 -0.0682,0.681973 -0.0682,4.364628 h 0.75017 q 1.15936,0 1.97772,-0.0682 l 5.31939,-0.272789 q 0.81837,-0.0682 1.97772,-0.0682 1.22756,0 1.29575,-0.0682 1.56854,-0.340986 5.59218,-0.545578 4.02364,-0.272789 4.36463,-0.272789 5.38759,-0.272789 11.18436,0.818367 0.95476,0.340987 1.43214,1.227552 0.54558,0.818367 0.27279,1.841327 -0.54558,0.75017 -1.29575,1.295749 -2.86429,0.0682 -7.77449,0.613776 -4.84201,0.545578 -6.88793,0.681973 -0.47738,0.0682 -2.5915,0.409183 -2.04592,0.340987 -3.88724,0.681973 -1.84133,0.340987 -2.5915,0.613776 -0.61378,0.0682 -1.97772,0.545579 -1.29575,0.477381 -1.70493,0.340986 l -4.29643,0.886565 q -1.22756,-0.340986 -2.31871,-1.432143 -0.40919,0.409184 -1.36395,0.886565 -1.84133,0.340986 -3.00068,-1.227552 -0.61378,-0.886565 -0.88657,-2.182314 z M 311.28581,7.7541225 q -4.50102,3.8190495 -8.18368,9.4794255 -0.13639,0.272789 -1.77313,3.000681 -1.56854,2.659695 -2.11411,3.887246 -0.75018,1.227552 -2.18232,0.886565 l -3.00068,-3.068878 v -2.114117 q 0.34099,-1.77313 0.75017,-6.887927 0.40918,-5.1147982 0.54558,-6.0695604 0,-0.3409866 -0.0682,-0.6137758 l -0.27279,-1.7731299 q -0.0682,-0.2727892 -0.0682,-0.6137757 V 3.594087 q 0,-1.0911569 0.68197,-1.7731299 0.75017,-0.6819731 1.84133,-0.6137757 2.18231,0 3.06887,1.363946 0.47739,1.8413272 0.47739,4.7738113 0,0.6137757 -0.0682,1.568538 0,0.8865649 0,0.9547622 0.54558,-0.4091838 2.18231,-2.0459191 1.70493,-1.7049326 2.11412,-2.250511 0.47738,-0.6137757 1.15935,-1.6367353 0.75017,-1.0911569 1.43215,-1.8413272 0.68197,-0.8183676 1.63673,-1.56853799 0.34099,-0.47738112 0.81837,-0.68197303 0.47738,-0.27278922 0.88656,-0.27278922 0.47738,-0.0681973 1.02296,-0.0681973 0.54558,0 1.09116,0 0.75017,-0.27278922 1.50034,0.1363946 0.81837,0.34098652 1.70493,1.50034064 0.88657,1.0911569 1.09116,1.5003407 0.27279,0.4091839 1.09116,1.7049326 2.11411,4.9102059 2.11411,10.7069767 l 1.29575,5.592179 q 0,0.204592 0.40919,1.363946 0.47738,1.159354 0.47738,1.227551 0.13639,1.841328 -0.88657,2.591498 -0.20459,0.0682 -1.02296,0.409184 -0.75017,0.272789 -1.15935,0.272789 -0.68197,0 -0.81837,-0.681973 -0.13639,-0.204592 -0.95476,-1.500341 -0.75017,-1.363946 -1.22755,-1.909524 -1.29575,-4.501022 -1.70494,-8.661058 -0.20459,-0.477381 -0.61377,-2.045919 -0.34099,-1.636735 -0.68197,-2.2505109 -1.43215,-1.6367353 -1.90953,-1.7731299 -0.54558,0 -0.68197,0.068197 z m 18.27694,33.6212705 q 1.56854,-1.227551 3.13708,-1.227551 1.22755,0 2.04592,0.818367 0.34098,0.340987 1.77313,2.04592 1.43214,1.773129 2.5233,2.591497 1.09115,0.818368 2.3869,1.02296 0.20459,0 0.27279,-0.0682 1.43214,-0.681973 2.04592,-2.386905 0.61378,-1.704933 0.81837,-4.29643 0.27279,-2.591498 0.54558,-3.614458 0.27278,-1.773129 0.75017,-5.79677 0.54557,-4.023641 0.88656,-5.796771 h -0.75017 q -3.54626,0.818367 -6.95612,0.818367 -3.27348,0 -6.88793,-0.818367 -2.79609,-1.636735 -4.84201,-4.091838 -1.97772,-2.523301 -2.04592,-5.455785 0.27279,-3.000681 3.13708,-5.9331651 2.86428,-3.0006814 5.93316,-4.3646274 2.5233,-2.1141165 6.27415,-2.1141165 4.84201,0 7.09252,3.3416679 0,0.4091838 0,1.2957488 0.0682,0.8183676 0,1.2957488 0,0.4091838 -0.40918,0.8183676 -0.40918,0.4091838 -1.29575,0.4773811 -0.81837,-0.4773811 -4.43282,-0.8865649 -4.29643,-0.2727892 -8.52467,4.7738117 -0.34098,0.340986 -0.47738,0.75017 -0.13639,0.409184 0,0.818368 0.1364,0.409183 0.27279,0.75017 0.20459,0.340986 0.54558,0.75017 0.40918,0.340987 0.61377,0.613776 0.27279,0.204592 0.68198,0.613776 0.40918,0.340986 0.54558,0.477381 2.04592,0.818367 4.50102,0.818367 2.18231,0 4.43282,-0.681973 2.31871,-0.75017 4.16004,-2.386905 1.84133,-1.636736 1.97772,-3.819049 0.61378,-3.0006816 3.47806,-3.8872465 h 0.20459 q 0.1364,0.068197 0.61378,0.2045919 0.54558,0.1363946 0.68197,0.2045919 0.1364,0 0.54558,0.1363946 0.40919,0.1363946 0.54558,0.2045919 0.20459,0.068197 0.47738,0.2727892 0.34099,0.1363946 0.40919,0.340987 0.13639,0.136394 0.27278,0.409183 0.2046,0.204592 0.2046,0.477381 0,0.204592 0,0.545579 0,0.340986 -0.0682,0.681973 0.13639,2.045919 -1.84133,5.660376 -1.90952,3.54626 -2.25051,5.046601 -3.00068,9.684017 -4.16003,19.027047 -0.47739,5.864969 -2.11412,8.592861 -2.04592,3.068878 -3.34167,3.955443 -1.02296,0.613776 -2.25051,0.818368 -3.40986,-1.363946 -8.25187,-5.182995 -1.50034,-0.75017 -2.31871,-1.227552 -0.75017,-0.477381 -1.63674,-1.432143 -0.88656,-0.954762 -1.22755,-2.114116 -0.13639,-2.864287 1.29575,-3.887247 z m 29.87038,-53.057502 q 0.40918,-1.02296 1.43214,-1.636735 1.09116,-0.681973 2.25051,-0.545579 0.40919,-0.0682 0.75017,0 0.34099,0.0682 0.68198,0.272789 0.40918,0.204592 0.61377,0.340987 0.20459,0.136395 0.54558,0.613776 0.40918,0.477381 0.54558,0.613775 0.13639,0.0682 0.54558,0.681973 l 0.40918,0.545579 q 0.27279,0.681973 2.5915,3.0006813 0.47738,0.681973 0.47738,1.6367352 0.0682,0.886565 -0.47738,1.4321434 h -1.50034 q -1.15936,0.2045919 -2.38691,-0.1363946 -1.15935,-0.3409865 -3.13707,-1.3639461 -1.90953,-1.0229595 -2.04592,-1.0911568 -1.15936,-0.6819731 -1.56854,-1.9095245 -0.34099,-1.2957489 0.27279,-2.4551029 z m 4.36463,34.576033 q -0.1364,-0.818368 -0.40919,-3.54626 -0.27279,-2.796089 -0.54558,-5.796771 -0.27278,-3.068878 -0.34098,-3.6144568 -0.1364,-1.8413272 0,-3.8872463 1.02296,-1.7731299 3.40986,-1.2957488 0.88657,0.4091839 1.77313,2.5914976 0,1.4321434 0.20459,3.0006813 0.27279,1.568538 0.47739,2.659695 0.27279,1.091157 0.75017,2.864287 0.47738,1.77313 0.68197,2.727892 0,0.545578 -0.1364,1.77313 -0.0682,1.159354 -0.20459,2.250511 -0.0682,1.091157 -0.0682,1.159354 -0.0682,0.204592 -0.2046,0.75017 -0.0682,0.545579 -0.20459,0.886565 -0.0682,0.340987 -0.34098,0.750171 -0.2046,0.340986 -0.54558,0.545578 -1.84133,0.340986 -3.00068,-0.818368 -1.15936,-2.045919 -1.29575,-3.000681 z M 392.23603,7.7541225 q -4.50102,3.8190495 -8.18367,9.4794255 -0.1364,0.272789 -1.77313,3.000681 -1.56854,2.659695 -2.11412,3.887246 -0.75017,1.227552 -2.18231,0.886565 l -3.00068,-3.068878 v -2.114117 q 0.34098,-1.77313 0.75017,-6.887927 0.40918,-5.1147982 0.54557,-6.0695604 0,-0.3409866 -0.0682,-0.6137758 l -0.27279,-1.7731299 q -0.0682,-0.2727892 -0.0682,-0.6137757 V 3.594087 q 0,-1.0911569 0.68197,-1.7731299 0.75017,-0.6819731 1.84133,-0.6137757 2.18231,0 3.06888,1.363946 0.47738,1.8413272 0.47738,4.7738113 0,0.6137757 -0.0682,1.568538 0,0.8865649 0,0.9547622 0.54558,-0.4091838 2.18232,-2.0459191 1.70493,-1.7049326 2.11411,-2.250511 0.47738,-0.6137757 1.15936,-1.6367353 0.75017,-1.0911569 1.43214,-1.8413272 0.68197,-0.8183676 1.63674,-1.56853799 0.34098,-0.47738112 0.81836,-0.68197303 0.47739,-0.27278922 0.88657,-0.27278922 0.47738,-0.0681973 1.02296,-0.0681973 0.54558,0 1.09116,0 0.75017,-0.27278922 1.50034,0.1363946 0.81836,0.34098652 1.70493,1.50034064 0.88656,1.0911569 1.09116,1.5003407 0.27279,0.4091839 1.09115,1.7049326 2.11412,4.9102059 2.11412,10.7069767 l 1.29575,5.592179 q 0,0.204592 0.40918,1.363946 0.47738,1.159354 0.47738,1.227551 0.1364,1.841328 -0.88656,2.591498 -0.20459,0.0682 -1.02296,0.409184 -0.75017,0.272789 -1.15936,0.272789 -0.68197,0 -0.81836,-0.681973 -0.1364,-0.204592 -0.95477,-1.500341 -0.75017,-1.363946 -1.22755,-1.909524 -1.29575,-4.501022 -1.70493,-8.661058 -0.20459,-0.477381 -0.61378,-2.045919 -0.34098,-1.636735 -0.68197,-2.2505109 -1.43214,-1.6367353 -1.90952,-1.7731299 -0.54558,0 -0.68198,0.068197 z m 20.05008,-0.8865649 q 4.9102,-6.27415198 10.77517,-8.1836765 3.75085,-0.4773811 3.95544,-0.4773811 4.22824,0.1363946 7.36531,2.59149753 3.13708,2.38690567 3.34167,6.54694117 0.0682,3.6144573 -2.93248,6.6151383 -2.93249,3.000682 -6.54695,3.273471 -1.36394,0.477381 -2.93248,0.477381 -3.54626,0 -7.84269,-2.591498 -1.29575,-1.295748 -1.70493,-1.295748 -0.27279,-0.136395 -0.47738,0 -2.25051,3.409865 -2.18232,5.182995 0.75017,4.432824 4.77381,7.501703 4.02365,3.137076 8.52467,2.864287 0.68197,0.272789 2.3869,0 1.70494,-0.204592 2.25051,-0.340987 0.61378,-0.136394 2.31871,-0.681973 1.77313,-0.477381 2.45511,-0.681973 2.3869,-0.954762 6.34234,-1.227551 h 0.47739 q 0.47738,-0.136395 0.88656,0.204592 0.40918,0.340986 0.47738,1.022959 v 2.5233 q -2.4551,2.79609 -6.06956,3.000682 -0.75017,0.204592 -2.72789,0.75017 -1.90952,0.545579 -2.93248,0.750171 -0.95477,0.272789 -2.5915,0.477381 -1.56854,0.272789 -2.86429,0.204592 -6.00136,0.272789 -11.52534,-3.068879 -5.0466,-2.591498 -7.7745,-9.002044 -1.02295,-4.023641 0.34099,-7.84269 1.36395,-3.819049 4.43283,-8.5928604 z m 5.31939,3.2734704 q 1.43214,0 2.4551,0.204592 0.61377,0.340987 1.15935,0.545578 0.61378,0.136395 1.43215,0.27279 0.88656,0.0682 1.15935,0.0682 0.27279,0 1.43214,0 1.22756,0 1.29575,0 3.54626,-1.091157 4.70562,-3.0688787 0.20459,-0.7501703 0,-1.2957487 -0.1364,-0.6137758 -0.75017,-1.0229596 -0.61378,-0.4091838 -1.15936,-0.6137757 -0.54558,-0.2045919 -1.50034,-0.4773812 -0.88656,-0.3409865 -1.29575,-0.4773811 -1.63673,0 -3.34167,0.9547623 -1.70493,0.8865649 -2.72789,1.7731299 -1.02296,0.8865649 -2.5915,2.4551029 0,0.068197 -0.13639,0.3409865 -0.13639,0.2045924 -0.13639,0.3409864 z"
       id="text2"
       style="font-size:68.1973px;font-family:'Virgil 3 YOFF';-inkscape-font-specification:'Virgil 3 YOFF, Normal';dominant-baseline:text-before-edge;white-space:pre;fill:#c2255c"
       aria-label="Simple Engine" />
  </g>
  <g
     stroke-linecap="round"
     transform="translate(289.40170735499476 215.6065411228389) rotate(0 65.33617628260566 20.866439494680833)"
     id="g4">
    <path
       d="M10.43 0 M10.43 0 C38.64 0.44, 67.66 0.44, 120.24 0 M10.43 0 C36.29 -1.11, 63.68 -0.24, 120.24 0 M120.24 0 C126.38 -1.28, 131.7 2.32, 130.67 10.43 M120.24 0 C129.46 1.72, 132.59 2.58, 130.67 10.43 M130.67 10.43 C128.96 17.97, 129.27 23.34, 130.67 31.3 M130.67 10.43 C131.32 18.44, 131.15 26.82, 130.67 31.3 M130.67 31.3 C132.31 39.18, 127.58 40.02, 120.24 41.73 M130.67 31.3 C130.28 37.14, 128.43 40.52, 120.24 41.73 M120.24 41.73 C86.2 43.09, 50.35 43.39, 10.43 41.73 M120.24 41.73 C89.06 42.43, 55.58 41.44, 10.43 41.73 M10.43 41.73 C2.77 41.43, -1.96 38.5, 0 31.3 M10.43 41.73 C4.4 41, 0.99 39.87, 0 31.3 M0 31.3 C1.54 26.06, -0.6 18.32, 0 10.43 M0 31.3 C-1.01 23.35, -0.2 16.04, 0 10.43 M0 10.43 C-1.41 4.92, 1.53 -1.01, 10.43 0 M0 10.43 C-0.4 4.71, 3.49 -0.09, 10.43 0"
       stroke="#1971c2"
       stroke-width="1"
       fill="none"
       id="path3" />
  </g>
  <g
     stroke-linecap="round"
     id="g6">
    <g
       transform="translate(387.94544156836844 233.30654613342546) rotate(270 6.889326592406178 4.049350374443634)"
       id="g5">
      <path
         d="M-0.26 -0.71 C0.87 0.76, 4.15 8.62, 6.53 8.81 C8.91 8.99, 12.6 1.61, 14.04 0.38 M1.8 1.53 C3.31 2.67, 6.79 7.18, 8.64 7.18 C10.49 7.19, 11.74 2.87, 12.91 1.55"
         stroke="#1971c2"
         stroke-width="1"
         fill="none"
         id="path4" />
    </g>
  </g>
  <mask
     id="mask6" />
  <g
     stroke-linecap="round"
     id="g8">
    <g
       transform="translate(309.60175063789643 335.3608047900785) rotate(0 3.093991687726458 2.1907098717867655)"
       fill-rule="evenodd"
       id="g7">
      <path
         d="M-5.23 0.75 C-5.23 0.75, -5.23 0.75, -5.23 0.75 M-5.23 0.75 C-5.23 0.75, -5.23 0.75, -5.23 0.75 M-2.25 3.02 C0.18 -0.59, 3.08 -2.22, 4.03 -3.74 M-2.33 3.74 C0.65 0.44, 2.91 -1.81, 4.61 -4.09 M1.09 5.44 C2.49 3.96, 2.61 3.34, 6.49 -0.03 M0.88 6.06 C2.43 4.43, 3.61 2.21, 5.86 0.31 M4.69 8.03 C5.61 6.72, 6.19 5.81, 7.49 3.77 M4.39 7.71 C5.48 6.74, 6.26 5.96, 7.74 4.14 M8.13 9.86 C8.61 9.3, 9.18 8.6, 9.55 8.26 M8.24 9.69 C8.5 9.2, 9.01 8.91, 9.4 8.27"
         stroke="#c8c8c8"
         stroke-width="0.5"
         fill="none"
         id="path6" />
      <path
         d="M-1.15 0.95 C-0.8 0.02, 0.7 -6.18, 1.85 -6.3 C3 -6.41, 4.27 -0.63, 5.72 0.26 C7.18 1.15, 10.26 -1.48, 10.58 -0.97 C10.91 -0.45, 7.56 1.42, 7.68 3.35 C7.8 5.28, 11.87 10.05, 11.29 10.62 C10.7 11.2, 6.41 6.93, 4.19 6.8 C1.96 6.67, -1.27 10.35, -2.07 9.83 C-2.86 9.31, -0.07 5.28, -0.59 3.66 C-1.1 2.04, -5.09 0.55, -5.15 0.09 C-5.22 -0.38, -1.87 0.69, -0.95 0.86 M0.45 0.41 C1.21 -0.28, 3.4 -4.56, 4.2 -4.91 C4.99 -5.26, 4.14 -2.46, 5.2 -1.69 C6.26 -0.91, 10.35 -1.11, 10.57 -0.27 C10.8 0.57, 6.69 1.65, 6.53 3.38 C6.38 5.1, 10.46 9.14, 9.66 10.06 C8.85 10.97, 3.77 9.01, 1.7 8.87 C-0.38 8.72, -2.19 9.77, -2.8 9.19 C-3.41 8.62, -1.72 7.09, -1.97 5.43 C-2.22 3.77, -4.44 0.36, -4.3 -0.78 C-4.16 -1.91, -1.7 -1.7, -1.13 -1.37"
         stroke="#e03131"
         stroke-width="1"
         fill="none"
         id="path7" />
    </g>
  </g>
  <mask
     id="mask8" />
  <g
     stroke-linecap="round"
     transform="translate(291.9118463249123 316.9515320389052) rotate(0 65.33617628260566 20.866439494680833)"
     id="g9">
    <path
       d="M10.43 0 M10.43 0 C32.37 1.4, 56.52 -0.17, 120.24 0 M10.43 0 C37.31 1.38, 63.05 0.25, 120.24 0 M120.24 0 C128.14 -0.94, 131.6 1.86, 130.67 10.43 M120.24 0 C127.53 -1.5, 128.85 5.12, 130.67 10.43 M130.67 10.43 C131.37 18.13, 132.64 25.82, 130.67 31.3 M130.67 10.43 C130.54 17.18, 131.25 24.37, 130.67 31.3 M130.67 31.3 C131.15 38.54, 128.29 43.26, 120.24 41.73 M130.67 31.3 C131.54 39.67, 128.41 41.57, 120.24 41.73 M120.24 41.73 C97.09 42.19, 70.05 42.11, 10.43 41.73 M120.24 41.73 C89.38 41.54, 58.16 42.57, 10.43 41.73 M10.43 41.73 C4.25 40.86, -0.46 39.7, 0 31.3 M10.43 41.73 C5.58 40.94, 1.32 39.95, 0 31.3 M0 31.3 C-0.33 23.78, 0.66 15.24, 0 10.43 M0 31.3 C0.03 24.07, 0.21 15.74, 0 10.43 M0 10.43 C-1.91 3.57, 3.85 0.27, 10.43 0 M0 10.43 C0.05 4.73, 1.41 -1.24, 10.43 0"
       stroke="#e03131"
       stroke-width="1"
       fill="none"
       id="path8" />
  </g>
  <g
     stroke-linecap="round"
     transform="translate(670.2000885009766 204.79998779296875) rotate(0 61.600067138671875 40.00000762939453)"
     id="g10">
    <path
       d="M20 0 M20 0 C43.28 -2.18, 71.58 -1.48, 103.2 0 M103.2 0 C116.56 -0.35, 122.01 7.63, 123.2 20 M123.2 20 C124.74 32.59, 124.05 46.08, 123.2 60 M123.2 60 C124.72 72.7, 115.62 81.7, 103.2 80 M103.2 80 C78 78.5, 50.87 79.88, 20 80 M20 80 C5.88 81.43, -1.75 74.61, 0 60 M0 60 C0.16 50.68, -1.47 39.34, 0 20 M0 20 C-1.18 8.6, 6.69 0.36, 20 0"
       stroke="#1971c2"
       stroke-width="2.5"
       fill="none"
       stroke-dasharray="8 10"
       id="path9" />
  </g>
</svg>
